# xmcd
#
# Track frame offsets: 
#        150
#        14209
#        28180
#        39895
#        54117
#        72195
#        80565
#        98897
#        121350
#        138702
#
# Disc length: 2071 seconds
#
# Revision: 0
# Processed by: cddbd v1.5.2PL0 Copyright (c) Steve Scherf et al.
# Submitted via: ExactAudioCopy v0.99pb5
#
DISCID=8608150a
DTITLE=Crossroads Quartet - On A Journey
DYEAR=1995
DGENRE=Gospel
TTITLE0=Don't It Make You Wanna Go Home
TTITLE1=God Is So Wonderful
TTITLE2=Hear Jerusalem Moan
TTITLE3=Led Out Of Bondage
TTITLE4=Sweet Beulah Land
TTITLE5=He Delivered Me
TTITLE6=I Thirst
TTITLE7=For What Earthly Reason
TTITLE8=On a Journey
TTITLE9=When He Was On The Cross
EXTD=
EXTT0=
EXTT1=
EXTT2=
EXTT3=
EXTT4=
EXTT5=
EXTT6=
EXTT7=
EXTT8=
EXTT9=
PLAYORDER=
